<svg xmlns="http://www.w3.org/2000/svg" width="83.31" height="84.228" viewBox="0 0 83.31 84.228">
  <g id="INHOUSE_ICON" data-name="INHOUSE ICON" transform="translate(-1.5)">
    <g id="Group_16" data-name="Group 16" transform="translate(3.5)">
      <g id="Group_15" data-name="Group 15" transform="translate(0)">
        <g id="Group_14" data-name="Group 14" transform="translate(0 14.901)">
          <g id="Group_13" data-name="Group 13" transform="translate(16.529 7.721)">
            <path id="Path_46" data-name="Path 46" d="M52.8,99.253a6.375,6.375,0,0,0,5.931,3.347c3.475,0,6.3-2.253,6.3-5.036,0-6.407-12.588-2.736-12.588-9.028,0-2.78,2.817-5.036,6.3-5.036a6.551,6.551,0,0,1,5.7,2.891" transform="translate(-52.44 -77.92)" fill="none" stroke="#fff" stroke-miterlimit="10" stroke-width="4"/>
            <line id="Line_9" data-name="Line 9" y1="5.58" transform="translate(6.292)" fill="none" stroke="#fff" stroke-miterlimit="10" stroke-width="4"/>
            <line id="Line_10" data-name="Line 10" y1="5.583" transform="translate(6.292 24.618)" fill="none" stroke="#fff" stroke-miterlimit="10" stroke-width="4"/>
          </g>
          <circle id="Ellipse_2" data-name="Ellipse 2" cx="22.822" cy="22.822" r="22.822" fill="none" stroke="#fff" stroke-miterlimit="10" stroke-width="4"/>
        </g>
        <line id="Line_11" data-name="Line 11" y1="9.457" transform="translate(6.025 4.688)" fill="none" stroke="#fff" stroke-miterlimit="10" stroke-width="4"/>
        <line id="Line_12" data-name="Line 12" y1="7.856" transform="translate(17.222)" fill="none" stroke="#fff" stroke-miterlimit="10" stroke-width="4"/>
        <line id="Line_13" data-name="Line 13" y1="7.123" transform="translate(28.421 3.131)" fill="none" stroke="#fff" stroke-miterlimit="10" stroke-width="4"/>
        <line id="Line_14" data-name="Line 14" y1="12.591" transform="translate(39.618 1.567)" fill="none" stroke="#fff" stroke-miterlimit="10" stroke-width="4"/>
      </g>
      <path id="Path_47" data-name="Path 47" d="M78.45,145.876v16.087h54V120.4H104.072" transform="translate(-53.136 -79.735)" fill="none" stroke="#fff" stroke-miterlimit="10" stroke-width="4"/>
      <line id="Line_15" data-name="Line 15" x2="27.165" transform="translate(38.73 68.921)" fill="none" stroke="#fff" stroke-miterlimit="10" stroke-width="4"/>
      <line id="Line_16" data-name="Line 16" x2="23.251" transform="translate(42.644 58.194)" fill="none" stroke="#fff" stroke-miterlimit="10" stroke-width="4"/>
    </g>
  </g>
</svg>
