<svg xmlns="http://www.w3.org/2000/svg" width="563.858" height="347.724" viewBox="0 0 563.858 347.724">
  <g id="LOGO_LANDING" data-name="LOGO LANDING" transform="translate(-577 -239)">
    <g id="LOHO_VECTOR_copy" data-name="LOHO VECTOR copy" transform="translate(577 391.175)">
      <path id="Path_1" data-name="Path 1" d="M360.027,0c2.551.368,5.095.735,7.94,1.154V29.516a29.357,29.357,0,0,0,2.786-2.4c7.675-8.778,25.12-7.7,31.575,3.367a24.772,24.772,0,0,1,3.132,11.285c.39,12.108.147,24.238.147,36.36v3.2H386.493V48.1c0-6.558-3.051-10.491-8.2-10.6-5.58-.118-10.13,4.668-10.167,10.858-.051,10.285-.015,20.569-.022,30.854,0,.61-.051,1.213-.1,2.11H349V0Z" transform="translate(-92.434)" fill="#fff"/>
      <path id="Path_2" data-name="Path 2" d="M232.116,0q0,13.96.015,27.914a6.169,6.169,0,0,0,.176.948c6.2-6.263,13.336-9.086,22.106-6.852,7.807,1.985,13.63,7.6,14.343,15.548.742,8.351.669,16.776.831,25.171.118,6.109.022,12.218.022,18.607H250.5V66.443c0-6.366.074-12.733-.022-19.1-.1-6.6-4.014-10.358-10.042-9.836-4.22.36-8.27,5.594-8.3,10.865-.059,10.527-.059,21.055-.081,31.582a4.441,4.441,0,0,1-.132.64H213.01V0h19.114Z" transform="translate(-56.416)" fill="#fff"/>
      <path id="Path_3" data-name="Path 3" d="M745.327,65.258H704.262c1.4,8.844,6.41,12.85,14.607,11.645,1.713-.25,3.176-1.978,4.845-2.845,1.617-.845,3.315-1.985,5.036-2.088,4.874-.279,9.777-.1,15.085-.1-.3,5.278-3.183,9.079-6.631,12-11.88,10.064-31.156,9.851-42.925-.47-4.565-4-7.2-9.586-8.432-15.592A39.5,39.5,0,0,1,686.376,51c2.654-11.829,14.931-21.7,26.745-21.077,5.05.272,10.035-.074,14.879,2.257,8.756,4.22,13.49,11.314,15.835,20.364.588,2.25,1,4.551,1.492,6.83v5.881Zm-20.04-11.917c.044-6.014-4.595-9.513-9.38-10.1-5.33-.654-10.152,3.727-11.387,10.1Z" transform="translate(-181.47 -7.917)" fill="#fff"/>
      <path id="Path_4" data-name="Path 4" d="M23.584,0V63.149H59.408v17.43H3V0Z" transform="translate(-0.795)" fill="#fff"/>
      <path id="Path_5" data-name="Path 5" d="M0,173.731c1.213-4.676,2.169-9.432,3.7-14,3.558-10.645,14.4-19.136,26.3-19.908,8.256-.537,15.975.294,22.841,5.234,5.9,4.249,8.4,10.38,10.1,17.651a46.243,46.243,0,0,0-4.734.029c-2.36.272-3.235-.706-3.94-3.007-2.4-7.829-10.086-13.012-18.342-13.247-6.094-.176-11.659.75-16.651,4.609C13.1,155.875,10.336,162.5,8.9,169.761a44.155,44.155,0,0,0,2.014,23.789A24.082,24.082,0,0,0,48.593,204.8c4.058-3.08,5.925-7.778,7.219-12.615.368-1.382.618-2.8.948-4.3h7.2a32.156,32.156,0,0,1-6.271,18.173c-5.7,7.623-13.7,9.866-22.959,10.476-17.085,1.132-28.95-10.189-32.795-24.311-.8-2.933-1.294-5.947-1.933-8.932v-9.557Z" transform="translate(0 -36.994)" fill="#fff"/>
      <path id="Path_6" data-name="Path 6" d="M167,239.988V168.936h7.278v7.778c7.337-8.925,15.982-10.718,25.987-7.322,6.241,2.117,10.108,6.9,11.9,12.7,3.139,10.138,3.44,20.511-1.286,30.442-6.271,13.174-24,15.4-34.368,6.388-.6-.522-.941-1.353-2.161-2.007v23.062H167Zm6.609-45.454c.059,9.314,2.507,15.776,6.822,19.658,5.558,5.006,17.489,5.911,22.444-2.33,5.095-8.462,5.381-17.276,2.573-26.553-3.308-10.939-15.938-15.2-24.583-7.425C175.315,182.875,173.962,189.314,173.609,194.534Z" transform="translate(-44.23 -44.439)" fill="#fff"/>
      <path id="Path_7" data-name="Path 7" d="M108.114,0V15.188H89V0Z" transform="translate(-23.572)" fill="#fff"/>
      <path id="Path_8" data-name="Path 8" d="M124.627,89.2c5.617,0,10.99-.11,16.35.1,1.007.037,2.161,1.169,2.911,2.073,4.977,6.014,16.328,4.279,18.232-1.97.9-2.941,1.184-6.065,1.933-10.116-2.536,1.764-4.124,2.985-5.815,4.029-6.624,4.095-17.989,2.8-24.583-2.352-9.263-7.227-11.5-16.938-10.094-28.3,1.029-8.373,4.359-15.129,11.035-19.893a22.353,22.353,0,0,1,28.722,2.551c.1-1.625.191-3.021.316-4.933h18.232v4.109c0,16.416.147,32.832-.044,49.247-.176,15.151-10.02,24.2-24.517,24.539-6.763.162-13.63.632-20.055-2.213-7.094-3.139-12.358-8.138-12.615-16.872Zm28.244-45.6c-4.286-.059-7.285,1.889-9.219,5.727a17.761,17.761,0,0,0-.39,15.519c1.6,3.764,4.837,6.41,8.866,6.535,3.793.118,7.616-1.213,9.594-5.117,2.36-4.646,3.205-9.513,1.375-14.541-2.073-5.7-5.19-8.087-10.226-8.116Z" transform="translate(-32.624 -7.603)" fill="#fff"/>
      <path id="Path_9" data-name="Path 9" d="M524.169,32.21h18.893v3.97q0,15.615,0,31.229a8.045,8.045,0,0,0,5.955,7.991c3.624.794,8.454-1.169,9.807-4.44a21.483,21.483,0,0,0,1.794-7.579c.2-10.27.081-20.54.081-31.067h18.908V89.838H561.639c-.118-1.6-.235-3.33-.316-4.448-3.911,1.978-7.7,5.139-11.887,5.786-13.593,2.11-24.76-2.573-25.4-19.628-.471-12.718-.081-25.465-.066-38.206a10.074,10.074,0,0,1,.191-1.125Z" transform="translate(-138.731 -8.531)" fill="#fff"/>
      <path id="Path_10" data-name="Path 10" d="M432.987,60.283c-.434-19.68,13.1-31.082,30.869-31.053,17.394.029,31.413,11.2,30.928,32.236-.368,15.967-12.27,30.722-33.567,29.413-15.5-.956-28.98-12.446-28.237-30.6Zm18.239.309c1.272,3.926,2.088,8.072,3.911,11.718,3,6.006,13.24,6.366,16.805.772,5.183-8.131,5.1-16.7.632-24.921a9.974,9.974,0,0,0-16.636-1.4c-3.132,4.139-3.852,8.66-4.712,13.828Z" transform="translate(-114.668 -7.742)" fill="#fff"/>
      <path id="Path_11" data-name="Path 11" d="M606.152,69.53c6.131.323,11.931.625,17.776.934,3.014,7.565,10,10.277,16.607,6.388,3.345-1.963,3.47-5.925-.154-7.263-4.668-1.72-9.726-2.345-14.49-3.83-4.286-1.331-8.925-2.441-12.5-4.948-9.579-6.719-6.638-23.753,4.08-28.149,11.064-4.536,22.121-4.859,32.927.713,5.014,2.588,9.9,9.55,8.322,15.019H641.858c-2.544-7-10.755-8.969-15.4-4.146-2.22,2.308-1.419,4.19.985,5a120.2,120.2,0,0,0,13.166,3.323c6.013,1.257,11.762,2.632,16.489,7.2,4.815,4.646,5.073,16.622,1.147,21.878-4.44,5.947-10.763,8.454-17.629,9.028-6.94.581-13.975.625-20.812-1.955-8.373-3.161-13.262-9.491-13.674-19.173Z" transform="translate(-160.535 -7.741)" fill="#fff"/>
      <path id="Path_12" data-name="Path 12" d="M327.712,24.622V37.178H317.574c0,9.55-.051,18.7.029,27.847.022,2.823,2.345,3.455,4.521,3.771a42,42,0,0,0,5.734.051c0,4.359.118,8.381-.1,12.38-.044.809-1.36,2.22-2.08,2.213a137.647,137.647,0,0,1-17.077-.743c-5.352-.72-9.38-6.219-9.4-11.681-.029-11.123-.007-22.238-.007-33.626H291.41V24.842h7.66V7.39H317.5V24.622h10.226Z" transform="translate(-77.181 -1.957)" fill="#fff"/>
      <path id="Path_13" data-name="Path 13" d="M102.24,185.492H95.4c.573-11.314,8.873-17.585,19.129-17.452a60.414,60.414,0,0,1,9.373.706c9.542,1.647,12.262,8.116,12.424,15.423.213,9.675.044,19.356.059,29.038,0,4.242,1.279,5.212,5.719,4.242v5.109c-6.9,3.058-11.895.551-13.365-7.219-1.242,1.61-2.25,3.507-3.771,4.786-5.55,4.646-19.415,5.139-25.429,1.257-5.565-3.595-6.984-8.8-6.425-14.7.573-6,3.962-10.513,9.836-12.086,6.337-1.7,12.88-2.647,19.364-3.742,2.955-.5,5.984-.867,6.653-4.359,1-5.168-.64-9.042-4.256-11.108A15.161,15.161,0,0,0,102.247,185.5Zm27.406,9.66c-6.969,1.264-13.784,2.514-20.606,3.735a11.552,11.552,0,0,0-8.638,8.734c-.573,2.705,1.434,7.256,4.065,8.77,5.911,3.389,16.578,2.073,21.635-4.33,4.058-5.139,3.837-11.1,3.551-16.908Z" transform="translate(-24.63 -44.505)" fill="#fff"/>
      <path id="Path_14" data-name="Path 14" d="M348.929,222.866c-6.837,2.176-11.454.772-13.431-6.477-4.22,5.565-10.307,6.925-16.5,8.094-6.388,1.206-15.864-3.014-18.026-9.05-3.073-8.564-1.331-17.614,8.778-20.908,5.183-1.691,10.777-2.1,16.188-3.08a32.9,32.9,0,0,0,5.286-.992c2.683-.978,4.867-2.4,4.749-5.94-.147-4.286-2.147-8.263-5.9-9.5-5.646-1.86-11.38-2.36-16.453,1.61a12.729,12.729,0,0,0-3.727,4.573c-2.1,4.712-1.955,4.778-7.462,4.043-.823-6.153,2.985-12.24,9.557-15.173,7.329-3.271,14.828-2.83,22.179-.4,5.271,1.742,8.337,6.977,8.359,13.078.029,9.91,0,19.827.015,29.737,0,4.881,1.559,6.087,6.388,4.815v5.565ZM335.7,195.4c-6.793,1.154-13.512,2.213-20.187,3.463-4.381.823-7.984,4.646-8.256,8.4-.4,5.389,1.139,8.476,5.69,10.049a17.666,17.666,0,0,0,15.078-1.448c8.256-4.734,8.557-12.409,7.675-20.466Z" transform="translate(-79.351 -44.424)" fill="#fff"/>
      <path id="Path_15" data-name="Path 15" d="M107.921,89.023H89.27V31.41h18.651Z" transform="translate(-23.643 -8.319)" fill="#fff"/>
      <path id="Path_16" data-name="Path 16" d="M268.163,169.857H260.29v-6.513h7.734V147.31H275.4v15.776h9.425v6.646h-9.314v35.655c0,5.683,1.742,7.028,7.322,5.719a11.975,11.975,0,0,1,2.227-.015,25.409,25.409,0,0,1-.073,4.381c-.14.779-1,2.051-1.514,2.036-3.727-.088-7.66.2-11.115-.912-3.095-.985-4.234-4.279-4.22-7.734.059-12.828.022-25.657.022-39.014Z" transform="translate(-68.939 -39.016)" fill="#fff"/>
      <path id="Path_17" data-name="Path 17" d="M374.33,142.23h6.925v73.787H374.33V142.23Z" transform="translate(-99.142 -37.67)" fill="#fff"/>
      <path id="Path_18" data-name="Path 18" d="M242.34,169.22h6.175V223.3H242.34Z" transform="translate(-64.184 -44.818)" fill="#fff"/>
      <path id="Path_19" data-name="Path 19" d="M248.618,142.38v9.072H242.2a12.933,12.933,0,0,1-.184-1.5c-.015-2.433-.007-4.859-.007-7.565h6.609Z" transform="translate(-64.096 -37.71)" fill="#fff"/>
    </g>
    <path id="LOGO" d="M2.3.022c7.506,4.1,14.99,8.256,22.532,12.3Q94.052,49.406,163.27,86.5a7.247,7.247,0,0,0,5.249.75q31.361-6.671,62.723-13.35,37.272-7.929,74.551-15.857,35.486-7.532,70.978-15.034,53.052-11.237,106.111-22.481,36.743-7.8,73.478-15.629a40.135,40.135,0,0,1,5.08-.463V24.966c-.956.206-1.9.419-2.86.618Q519.5,33.82,480.419,42.065q-43.91,9.318-87.806,18.724Q344.766,70.956,296.9,81.065,263.022,88.232,229.139,95.4c-12.306,2.617-24.583,5.33-36.875,8.013a11.556,11.556,0,0,0-1.434.522c.485.044.963.132,1.448.132q11.755.033,23.51.051,117.363.044,234.725.081,55.467.011,110.934-.029c0,6.109-.051,12.226.037,18.335.022,1.272-.228,1.72-1.514,1.485a10.14,10.14,0,0,0-1.831-.015H3.4q-3.308,0-3.308-3.3V103.435c.853.051,1.706.14,2.558.14q40.734.21,81.476.4c11.748.051,23.5.044,35.236.051q14.865,0,29.737-.015a7,7,0,0,0,1.309-.265,4.6,4.6,0,0,0-.985-.978c-4.734-2.551-9.491-5.065-14.232-7.6Q67.642,58.97.1,22.76C.1,15.791.258,8.822.008,1.86-.08-.441,1.082.059,2.3.022Z" transform="translate(577.817 239)" fill="#fff"/>
  </g>
</svg>
