<svg xmlns="http://www.w3.org/2000/svg" width="35.506" height="24.039" viewBox="0 0 35.506 24.039">
  <path id="CONTACT_ICON" data-name="CONTACT ICON" d="M193.942,27.462l10.251,8.621L193.942,44.7V27.469Zm30.092-1.232-14.1,11.843s-.06.015-.083,0L195.76,26.23h28.267Zm1.69,18.466-10.251-8.621,10.251-8.621V44.689ZM213.9,37.4l10.882,9.147h-29.9L205.763,37.4l3.515,2.959a.88.88,0,0,0,1.1,0ZM193.5,24.36h32.667a1.423,1.423,0,0,1,1.419,1.419v21.2a1.423,1.423,0,0,1-1.419,1.419H193.5a1.423,1.423,0,0,1-1.419-1.419v-21.2A1.423,1.423,0,0,1,193.5,24.36Z" transform="translate(-192.08 -24.36)" fill="#fff" fill-rule="evenodd"/>
</svg>
