<svg xmlns="http://www.w3.org/2000/svg" width="84.037" height="87.885" viewBox="0 0 84.037 87.885">
  <g id="PROPRIETARY_ICON" data-name="PROPRIETARY ICON" transform="translate(-1.51 -1.5)">
    <g id="Group_19" data-name="Group 19" transform="translate(3.51 3.5)">
      <g id="Group_17" data-name="Group 17" transform="translate(0 46.106)">
        <path id="Path_48" data-name="Path 48" d="M59.579,163.605l-6.217-3.644H29.7a4.548,4.548,0,0,1-2.3-.62l-21.164-12.3a5.471,5.471,0,0,1-2.726-4.732h0a5.476,5.476,0,0,1,8.149-4.778l17.3,9.687" transform="translate(-3.51 -135.679)" fill="none" stroke="#fff" stroke-miterlimit="10" stroke-width="4"/>
        <path id="Path_49" data-name="Path 49" d="M173.15,159.185l-11.424,17.084a3.884,3.884,0,0,0,1.014,5.349l6.252,4.345,15.542-23.524-5.887-4.246a3.884,3.884,0,0,0-5.5.992Z" transform="translate(-105.225 -148.995)" fill="none" stroke="#fff" stroke-miterlimit="10" stroke-width="4"/>
        <path id="Path_50" data-name="Path 50" d="M87.784,145.964H74.039a5.129,5.129,0,0,1-5.129-5.129h0a5.129,5.129,0,0,1,5.129-5.129H84.364a19.191,19.191,0,0,0,6.575-1.088c6.132-2.237,14.713-.964,19.682,4.827a14.771,14.771,0,0,0,2.9,2.626l.879.592" transform="translate(-45.729 -133.58)" fill="none" stroke="#fff" stroke-miterlimit="10" stroke-width="4"/>
      </g>
      <path id="Path_51" data-name="Path 51" d="M94.65,30.28c7.3,6.77,14.38,17.655,14.38,26.289v6.022" transform="translate(-62.346 -20.788)" fill="none" stroke="#fff" stroke-miterlimit="10" stroke-width="4"/>
      <path id="Path_52" data-name="Path 52" d="M32.76,30.28c-7.3,6.77-14.38,17.655-14.38,26.289v6.713" transform="translate(-13.109 -20.788)" fill="none" stroke="#fff" stroke-miterlimit="10" stroke-width="4"/>
      <path id="Path_53" data-name="Path 53" d="M64.688,13.19,68.328,5.9a1.659,1.659,0,0,0-1.485-2.4H49.954a1.659,1.659,0,0,0-1.485,2.4l3.64,7.291" transform="translate(-32.42 -3.5)" fill="none" stroke="#fff" stroke-miterlimit="10" stroke-width="4"/>
      <g id="Group_18" data-name="Group 18" transform="translate(20.448 16.35)">
        <path id="Path_54" data-name="Path 54" d="M61.519,76.351a5.6,5.6,0,0,0,5.21,2.938c3.055,0,5.529-1.981,5.529-4.423,0-5.629-11.059-2.4-11.059-7.932,0-2.442,2.474-4.423,5.529-4.423a5.751,5.751,0,0,1,5,2.541" transform="translate(-61.2 -57.945)" fill="none" stroke="#fff" stroke-miterlimit="10" stroke-width="4"/>
        <line id="Line_17" data-name="Line 17" y1="4.569" transform="translate(5.529)" fill="none" stroke="#fff" stroke-miterlimit="10" stroke-width="4"/>
        <line id="Line_18" data-name="Line 18" y1="4.569" transform="translate(5.529 21.291)" fill="none" stroke="#fff" stroke-miterlimit="10" stroke-width="4"/>
      </g>
      <line id="Line_19" data-name="Line 19" x2="12.618" transform="translate(19.686 9.69)" fill="none" stroke="#fff" stroke-miterlimit="10" stroke-width="4"/>
    </g>
  </g>
</svg>
