<svg xmlns="http://www.w3.org/2000/svg" width="83.314" height="65.669" viewBox="0 0 83.314 65.669">
  <g id="SENIOR_DEBT_ICON" data-name="SENIOR DEBT ICON" transform="translate(-1.498 -1.499)">
    <g id="Group_20" data-name="Group 20" transform="translate(3.5 3.5)">
      <path id="Path_56" data-name="Path 56" d="M141.94,138.63l6.568,5.2a4.612,4.612,0,0,0,6.486-.68h0l.979-1.239" transform="translate(-96.455 -94.232)" fill="none" stroke="#fff" stroke-miterlimit="10" stroke-width="4"/>
      <path id="Path_57" data-name="Path 57" d="M133.1,166.494l1.692,1.38a4.612,4.612,0,0,0,6.486-.68h0l.874-1.1" transform="translate(-90.519 -112.67)" fill="none" stroke="#fff" stroke-miterlimit="10" stroke-width="4"/>
      <path id="Path_58" data-name="Path 58" d="M107.51,182.569l2.142,1.735a4.612,4.612,0,0,0,6.486-.68h0l.913-1.153" transform="translate(-73.337 -123.668)" fill="none" stroke="#fff" stroke-miterlimit="10" stroke-width="4"/>
      <path id="Path_59" data-name="Path 59" d="M111.292,45.955l7.521,5.97a4.612,4.612,0,0,0,6.486-.68h0a4.612,4.612,0,0,0-.68-6.486L99.865,24.944c-1.722,6.223-4.567,10.143-9.311,10.182a3.009,3.009,0,0,1-2.957-3.65l2.142-9.811a7.85,7.85,0,0,1,3.47-4.971,73.484,73.484,0,0,1,8.158-4.508,11.006,11.006,0,0,1,7.866-.509A50.438,50.438,0,0,0,120.6,13.96" transform="translate(-59.919 -8.657)" fill="none" stroke="#fff" stroke-miterlimit="10" stroke-width="4"/>
      <path id="Path_60" data-name="Path 60" d="M60.83,20.23c7.034,4.458,8.165,2.566,12.36,4.455" transform="translate(-41.994 -14.733)" fill="none" stroke="#fff" stroke-miterlimit="10" stroke-width="4"/>
      <path id="Path_61" data-name="Path 61" d="M26.6,102.2c-1.518-1.978-2.717-4.242-5.139-6.581" transform="translate(-15.559 -65.353)" fill="none" stroke="#fff" stroke-miterlimit="10" stroke-width="4"/>
      <path id="Path_62" data-name="Path 62" d="M39.314,113.982l2.5-3.026a3.976,3.976,0,0,0-.749-5.576h0a3.976,3.976,0,0,0-5.576.749l-2.405,3.1a3.976,3.976,0,0,0,.749,5.576h0A3.879,3.879,0,0,0,39.314,113.982Z" transform="translate(-22.814 -71.359)" fill="none" stroke="#fff" stroke-miterlimit="10" stroke-width="4"/>
      <path id="Path_63" data-name="Path 63" d="M55.958,126.664l4.527-5.5a3.987,3.987,0,0,0-.588-5.608h0a3.987,3.987,0,0,0-5.608.588l-4.527,5.5a3.987,3.987,0,0,0,.588,5.608h0A3.987,3.987,0,0,0,55.958,126.664Z" transform="translate(-33.965 -78.139)" fill="none" stroke="#fff" stroke-miterlimit="10" stroke-width="4"/>
      <path id="Path_64" data-name="Path 64" d="M75.088,144.338l3.575-4.495a4.033,4.033,0,0,0-.595-5.671h0a4.033,4.033,0,0,0-5.671.595l-3.575,4.495a4.033,4.033,0,0,0,.595,5.671h0A4.033,4.033,0,0,0,75.088,144.338Z" transform="translate(-46.757 -90.636)" fill="none" stroke="#fff" stroke-miterlimit="10" stroke-width="4"/>
      <path id="Path_65" data-name="Path 65" d="M95.527,160.5l2.563-3.305a3.9,3.9,0,0,0-.575-5.484h0a3.866,3.866,0,0,0-5.454.6l-2.6,3.282a3.9,3.9,0,0,0,.575,5.484h0a3.9,3.9,0,0,0,5.484-.575Z" transform="translate(-60.637 -102.441)" fill="none" stroke="#fff" stroke-miterlimit="10" stroke-width="4"/>
      <path id="Path_66" data-name="Path 66" d="M206.567,94.08c-3.535,1.232-5.3,3.792-10.087,5.306" transform="translate(-133.075 -64.319)" fill="none" stroke="#fff" stroke-miterlimit="10" stroke-width="4"/>
      <path id="Path_67" data-name="Path 67" d="M207.1,3.5l-16.116.016a2.331,2.331,0,0,0-2.329,2.336V8.724l12.8,24.813a3.589,3.589,0,0,0,3.2,1.945h2.477L207.1,3.5Z" transform="translate(-127.818 -3.5)" fill="none" stroke="#fff" stroke-miterlimit="10" stroke-width="4"/>
      <path id="Path_68" data-name="Path 68" d="M3.5,3.7,19.616,3.68a2.335,2.335,0,0,1,2.336,2.329V8.881L9.2,33.72a3.592,3.592,0,0,1-3.194,1.952H3.53L3.5,3.7Z" transform="translate(-3.5 -3.621)" fill="none" stroke="#fff" stroke-miterlimit="10" stroke-width="4"/>
    </g>
  </g>
</svg>
